<svg id="visual" viewBox="0 0 960 140" width="960" height="140" xmlns="http://www.w3.org/2000/svg" xmlns:xlink="http://www.w3.org/1999/xlink" version="1.1"><rect x="0" y="0" width="960" height="140" fill="#080012"></rect><path d="M0 29L7.7 32.5C15.3 36 30.7 43 45.8 40.7C61 38.3 76 26.7 91.2 23.2C106.3 19.7 121.7 24.3 137 27.3C152.3 30.3 167.7 31.7 183 33.5C198.3 35.3 213.7 37.7 228.8 38.3C244 39 259 38 274.2 37C289.3 36 304.7 35 320 33C335.3 31 350.7 28 365.8 26C381 24 396 23 411.2 21.5C426.3 20 441.7 18 457 23C472.3 28 487.7 40 503 45.2C518.3 50.3 533.7 48.7 548.8 42.8C564 37 579 27 594.2 24.7C609.3 22.3 624.7 27.7 640 33.5C655.3 39.3 670.7 45.7 685.8 47.2C701 48.7 716 45.3 731.2 41.3C746.3 37.3 761.7 32.7 777 33.7C792.3 34.7 807.7 41.3 823 43.7C838.3 46 853.7 44 868.8 44.2C884 44.3 899 46.7 914.2 42.3C929.3 38 944.7 27 952.3 21.5L960 16L960 141L952.3 141C944.7 141 929.3 141 914.2 141C899 141 884 141 868.8 141C853.7 141 838.3 141 823 141C807.7 141 792.3 141 777 141C761.7 141 746.3 141 731.2 141C716 141 701 141 685.8 141C670.7 141 655.3 141 640 141C624.7 141 609.3 141 594.2 141C579 141 564 141 548.8 141C533.7 141 518.3 141 503 141C487.7 141 472.3 141 457 141C441.7 141 426.3 141 411.2 141C396 141 381 141 365.8 141C350.7 141 335.3 141 320 141C304.7 141 289.3 141 274.2 141C259 141 244 141 228.8 141C213.7 141 198.3 141 183 141C167.7 141 152.3 141 137 141C121.7 141 106.3 141 91.2 141C76 141 61 141 45.8 141C30.7 141 15.3 141 7.7 141L0 141Z" fill="#001f1f"></path><path d="M0 43L7.7 42C15.3 41 30.7 39 45.8 42.3C61 45.7 76 54.3 91.2 56.3C106.3 58.3 121.7 53.7 137 54.5C152.3 55.3 167.7 61.7 183 63C198.3 64.3 213.7 60.7 228.8 55.5C244 50.3 259 43.7 274.2 45.2C289.3 46.7 304.7 56.3 320 60.5C335.3 64.7 350.7 63.3 365.8 61C381 58.7 396 55.3 411.2 50.5C426.3 45.7 441.7 39.3 457 41.2C472.3 43 487.7 53 503 54.8C518.3 56.7 533.7 50.3 548.8 47.3C564 44.3 579 44.7 594.2 43C609.3 41.3 624.7 37.7 640 39.3C655.3 41 670.7 48 685.8 53.2C701 58.3 716 61.7 731.2 63.3C746.3 65 761.7 65 777 61.7C792.3 58.3 807.7 51.7 823 46.7C838.3 41.7 853.7 38.3 868.8 38.8C884 39.3 899 43.7 914.2 48.7C929.3 53.7 944.7 59.3 952.3 62.2L960 65L960 141L952.3 141C944.7 141 929.3 141 914.2 141C899 141 884 141 868.8 141C853.7 141 838.3 141 823 141C807.7 141 792.3 141 777 141C761.7 141 746.3 141 731.2 141C716 141 701 141 685.8 141C670.7 141 655.3 141 640 141C624.7 141 609.3 141 594.2 141C579 141 564 141 548.8 141C533.7 141 518.3 141 503 141C487.7 141 472.3 141 457 141C441.7 141 426.3 141 411.2 141C396 141 381 141 365.8 141C350.7 141 335.3 141 320 141C304.7 141 289.3 141 274.2 141C259 141 244 141 228.8 141C213.7 141 198.3 141 183 141C167.7 141 152.3 141 137 141C121.7 141 106.3 141 91.2 141C76 141 61 141 45.8 141C30.7 141 15.3 141 7.7 141L0 141Z" fill="#013333"></path><path d="M0 71L7.7 72C15.3 73 30.7 75 45.8 75.5C61 76 76 75 91.2 71.2C106.3 67.3 121.7 60.7 137 62.2C152.3 63.7 167.7 73.3 183 75C198.3 76.7 213.7 70.3 228.8 69.8C244 69.3 259 74.7 274.2 73.8C289.3 73 304.7 66 320 65.7C335.3 65.3 350.7 71.7 365.8 70.8C381 70 396 62 411.2 60.3C426.3 58.7 441.7 63.3 457 63C472.3 62.7 487.7 57.3 503 57C518.3 56.7 533.7 61.3 548.8 65C564 68.7 579 71.3 594.2 72.7C609.3 74 624.7 74 640 75.7C655.3 77.3 670.7 80.7 685.8 77.8C701 75 716 66 731.2 61.7C746.3 57.3 761.7 57.7 777 61C792.3 64.3 807.7 70.7 823 72.2C838.3 73.7 853.7 70.3 868.8 69.7C884 69 899 71 914.2 72.8C929.3 74.7 944.7 76.3 952.3 77.2L960 78L960 141L952.3 141C944.7 141 929.3 141 914.2 141C899 141 884 141 868.8 141C853.7 141 838.3 141 823 141C807.7 141 792.3 141 777 141C761.7 141 746.3 141 731.2 141C716 141 701 141 685.8 141C670.7 141 655.3 141 640 141C624.7 141 609.3 141 594.2 141C579 141 564 141 548.8 141C533.7 141 518.3 141 503 141C487.7 141 472.3 141 457 141C441.7 141 426.3 141 411.2 141C396 141 381 141 365.8 141C350.7 141 335.3 141 320 141C304.7 141 289.3 141 274.2 141C259 141 244 141 228.8 141C213.7 141 198.3 141 183 141C167.7 141 152.3 141 137 141C121.7 141 106.3 141 91.2 141C76 141 61 141 45.8 141C30.7 141 15.3 141 7.7 141L0 141Z" fill="#014949"></path><path d="M0 77L7.7 77.5C15.3 78 30.7 79 45.8 81.2C61 83.3 76 86.7 91.2 88.2C106.3 89.7 121.7 89.3 137 90C152.3 90.7 167.7 92.3 183 92.3C198.3 92.3 213.7 90.7 228.8 91.5C244 92.3 259 95.7 274.2 93.5C289.3 91.3 304.7 83.7 320 80.2C335.3 76.7 350.7 77.3 365.8 80C381 82.7 396 87.3 411.2 86.5C426.3 85.7 441.7 79.3 457 80C472.3 80.7 487.7 88.3 503 90.2C518.3 92 533.7 88 548.8 87.3C564 86.7 579 89.3 594.2 89.3C609.3 89.3 624.7 86.7 640 85C655.3 83.3 670.7 82.7 685.8 81.8C701 81 716 80 731.2 78.2C746.3 76.3 761.7 73.7 777 72.8C792.3 72 807.7 73 823 73.8C838.3 74.7 853.7 75.3 868.8 77.3C884 79.3 899 82.7 914.2 84C929.3 85.3 944.7 84.7 952.3 84.3L960 84L960 141L952.3 141C944.7 141 929.3 141 914.2 141C899 141 884 141 868.8 141C853.7 141 838.3 141 823 141C807.7 141 792.3 141 777 141C761.7 141 746.3 141 731.2 141C716 141 701 141 685.8 141C670.7 141 655.3 141 640 141C624.7 141 609.3 141 594.2 141C579 141 564 141 548.8 141C533.7 141 518.3 141 503 141C487.7 141 472.3 141 457 141C441.7 141 426.3 141 411.2 141C396 141 381 141 365.8 141C350.7 141 335.3 141 320 141C304.7 141 289.3 141 274.2 141C259 141 244 141 228.8 141C213.7 141 198.3 141 183 141C167.7 141 152.3 141 137 141C121.7 141 106.3 141 91.2 141C76 141 61 141 45.8 141C30.7 141 15.3 141 7.7 141L0 141Z" fill="#016060"></path><path d="M0 103L7.7 104.5C15.3 106 30.7 109 45.8 106.7C61 104.3 76 96.7 91.2 93.5C106.3 90.3 121.7 91.7 137 94.7C152.3 97.7 167.7 102.3 183 105.2C198.3 108 213.7 109 228.8 106.2C244 103.3 259 96.7 274.2 93.5C289.3 90.3 304.7 90.7 320 91.2C335.3 91.7 350.7 92.3 365.8 96.3C381 100.3 396 107.7 411.2 109.7C426.3 111.7 441.7 108.3 457 107.5C472.3 106.7 487.7 108.3 503 106.2C518.3 104 533.7 98 548.8 97C564 96 579 100 594.2 102.7C609.3 105.3 624.7 106.7 640 108.2C655.3 109.7 670.7 111.3 685.8 108.7C701 106 716 99 731.2 98.3C746.3 97.7 761.7 103.3 777 106.7C792.3 110 807.7 111 823 111.8C838.3 112.7 853.7 113.3 868.8 112.7C884 112 899 110 914.2 106.3C929.3 102.7 944.7 97.3 952.3 94.7L960 92L960 141L952.3 141C944.7 141 929.3 141 914.2 141C899 141 884 141 868.8 141C853.7 141 838.3 141 823 141C807.7 141 792.3 141 777 141C761.7 141 746.3 141 731.2 141C716 141 701 141 685.8 141C670.7 141 655.3 141 640 141C624.7 141 609.3 141 594.2 141C579 141 564 141 548.8 141C533.7 141 518.3 141 503 141C487.7 141 472.3 141 457 141C441.7 141 426.3 141 411.2 141C396 141 381 141 365.8 141C350.7 141 335.3 141 320 141C304.7 141 289.3 141 274.2 141C259 141 244 141 228.8 141C213.7 141 198.3 141 183 141C167.7 141 152.3 141 137 141C121.7 141 106.3 141 91.2 141C76 141 61 141 45.8 141C30.7 141 15.3 141 7.7 141L0 141Z" fill="#017777"></path><path d="M0 117L7.7 117.3C15.3 117.7 30.7 118.3 45.8 117.3C61 116.3 76 113.7 91.2 114.3C106.3 115 121.7 119 137 119.3C152.3 119.7 167.7 116.3 183 114.2C198.3 112 213.7 111 228.8 113.7C244 116.3 259 122.7 274.2 126C289.3 129.3 304.7 129.7 320 128.2C335.3 126.7 350.7 123.3 365.8 119.7C381 116 396 112 411.2 112.5C426.3 113 441.7 118 457 120.3C472.3 122.7 487.7 122.3 503 122.5C518.3 122.7 533.7 123.3 548.8 121.5C564 119.7 579 115.3 594.2 116.5C609.3 117.7 624.7 124.3 640 125.8C655.3 127.3 670.7 123.7 685.8 120.5C701 117.3 716 114.7 731.2 116.2C746.3 117.7 761.7 123.3 777 125C792.3 126.7 807.7 124.3 823 122.2C838.3 120 853.7 118 868.8 115.5C884 113 899 110 914.2 112.3C929.3 114.7 944.7 122.3 952.3 126.2L960 130L960 141L952.3 141C944.7 141 929.3 141 914.2 141C899 141 884 141 868.8 141C853.7 141 838.3 141 823 141C807.7 141 792.3 141 777 141C761.7 141 746.3 141 731.2 141C716 141 701 141 685.8 141C670.7 141 655.3 141 640 141C624.7 141 609.3 141 594.2 141C579 141 564 141 548.8 141C533.7 141 518.3 141 503 141C487.7 141 472.3 141 457 141C441.7 141 426.3 141 411.2 141C396 141 381 141 365.8 141C350.7 141 335.3 141 320 141C304.7 141 289.3 141 274.2 141C259 141 244 141 228.8 141C213.7 141 198.3 141 183 141C167.7 141 152.3 141 137 141C121.7 141 106.3 141 91.2 141C76 141 61 141 45.8 141C30.7 141 15.3 141 7.7 141L0 141Z" fill="#009090"></path></svg>