<svg id="visual" viewBox="0 0 960 140" width="960" height="140" xmlns="http://www.w3.org/2000/svg" xmlns:xlink="http://www.w3.org/1999/xlink" version="1.1"><rect x="0" y="0" width="960" height="140" fill="#122d0a"></rect><path d="M0 48L7.7 45C15.3 42 30.7 36 45.8 35.3C61 34.7 76 39.3 91.2 41.7C106.3 44 121.7 44 137 41C152.3 38 167.7 32 183 27.2C198.3 22.3 213.7 18.7 228.8 23C244 27.3 259 39.7 274.2 41C289.3 42.3 304.7 32.7 320 29C335.3 25.3 350.7 27.7 365.8 26.8C381 26 396 22 411.2 22.3C426.3 22.7 441.7 27.3 457 27.8C472.3 28.3 487.7 24.7 503 23.2C518.3 21.7 533.7 22.3 548.8 26C564 29.7 579 36.3 594.2 38C609.3 39.7 624.7 36.3 640 37.3C655.3 38.3 670.7 43.7 685.8 45.7C701 47.7 716 46.3 731.2 46.8C746.3 47.3 761.7 49.7 777 47.2C792.3 44.7 807.7 37.3 823 31.5C838.3 25.7 853.7 21.3 868.8 25C884 28.7 899 40.3 914.2 45.3C929.3 50.3 944.7 48.7 952.3 47.8L960 47L960 141L952.3 141C944.7 141 929.3 141 914.2 141C899 141 884 141 868.8 141C853.7 141 838.3 141 823 141C807.7 141 792.3 141 777 141C761.7 141 746.3 141 731.2 141C716 141 701 141 685.8 141C670.7 141 655.3 141 640 141C624.7 141 609.3 141 594.2 141C579 141 564 141 548.8 141C533.7 141 518.3 141 503 141C487.7 141 472.3 141 457 141C441.7 141 426.3 141 411.2 141C396 141 381 141 365.8 141C350.7 141 335.3 141 320 141C304.7 141 289.3 141 274.2 141C259 141 244 141 228.8 141C213.7 141 198.3 141 183 141C167.7 141 152.3 141 137 141C121.7 141 106.3 141 91.2 141C76 141 61 141 45.8 141C30.7 141 15.3 141 7.7 141L0 141Z" fill="#3a2a4e"></path><path d="M0 49L7.7 48.7C15.3 48.3 30.7 47.7 45.8 50.8C61 54 76 61 91.2 59.2C106.3 57.3 121.7 46.7 137 41.2C152.3 35.7 167.7 35.3 183 38.7C198.3 42 213.7 49 228.8 51.5C244 54 259 52 274.2 48.5C289.3 45 304.7 40 320 41.3C335.3 42.7 350.7 50.3 365.8 50.5C381 50.7 396 43.3 411.2 43.2C426.3 43 441.7 50 457 53.7C472.3 57.3 487.7 57.7 503 56.8C518.3 56 533.7 54 548.8 51.2C564 48.3 579 44.7 594.2 42.7C609.3 40.7 624.7 40.3 640 43.8C655.3 47.3 670.7 54.7 685.8 57.2C701 59.7 716 57.3 731.2 56.2C746.3 55 761.7 55 777 54.7C792.3 54.3 807.7 53.7 823 50C838.3 46.3 853.7 39.7 868.8 41.5C884 43.3 899 53.7 914.2 53.5C929.3 53.3 944.7 42.7 952.3 37.3L960 32L960 141L952.3 141C944.7 141 929.3 141 914.2 141C899 141 884 141 868.8 141C853.7 141 838.3 141 823 141C807.7 141 792.3 141 777 141C761.7 141 746.3 141 731.2 141C716 141 701 141 685.8 141C670.7 141 655.3 141 640 141C624.7 141 609.3 141 594.2 141C579 141 564 141 548.8 141C533.7 141 518.3 141 503 141C487.7 141 472.3 141 457 141C441.7 141 426.3 141 411.2 141C396 141 381 141 365.8 141C350.7 141 335.3 141 320 141C304.7 141 289.3 141 274.2 141C259 141 244 141 228.8 141C213.7 141 198.3 141 183 141C167.7 141 152.3 141 137 141C121.7 141 106.3 141 91.2 141C76 141 61 141 45.8 141C30.7 141 15.3 141 7.7 141L0 141Z" fill="#36234f"></path><path d="M0 79L7.7 74.7C15.3 70.3 30.7 61.7 45.8 60.5C61 59.3 76 65.7 91.2 67.2C106.3 68.7 121.7 65.3 137 66C152.3 66.7 167.7 71.3 183 71.8C198.3 72.3 213.7 68.7 228.8 64.7C244 60.7 259 56.3 274.2 57.7C289.3 59 304.7 66 320 66.7C335.3 67.3 350.7 61.7 365.8 60.5C381 59.3 396 62.7 411.2 63.2C426.3 63.7 441.7 61.3 457 59.7C472.3 58 487.7 57 503 56.7C518.3 56.3 533.7 56.7 548.8 57.5C564 58.3 579 59.7 594.2 63.7C609.3 67.7 624.7 74.3 640 73.2C655.3 72 670.7 63 685.8 62.3C701 61.7 716 69.3 731.2 70.7C746.3 72 761.7 67 777 64C792.3 61 807.7 60 823 59C838.3 58 853.7 57 868.8 57.7C884 58.3 899 60.7 914.2 65.5C929.3 70.3 944.7 77.7 952.3 81.3L960 85L960 141L952.3 141C944.7 141 929.3 141 914.2 141C899 141 884 141 868.8 141C853.7 141 838.3 141 823 141C807.7 141 792.3 141 777 141C761.7 141 746.3 141 731.2 141C716 141 701 141 685.8 141C670.7 141 655.3 141 640 141C624.7 141 609.3 141 594.2 141C579 141 564 141 548.8 141C533.7 141 518.3 141 503 141C487.7 141 472.3 141 457 141C441.7 141 426.3 141 411.2 141C396 141 381 141 365.8 141C350.7 141 335.3 141 320 141C304.7 141 289.3 141 274.2 141C259 141 244 141 228.8 141C213.7 141 198.3 141 183 141C167.7 141 152.3 141 137 141C121.7 141 106.3 141 91.2 141C76 141 61 141 45.8 141C30.7 141 15.3 141 7.7 141L0 141Z" fill="#321b4f"></path><path d="M0 72L7.7 74.8C15.3 77.7 30.7 83.3 45.8 84.2C61 85 76 81 91.2 77.8C106.3 74.7 121.7 72.3 137 73.5C152.3 74.7 167.7 79.3 183 81.3C198.3 83.3 213.7 82.7 228.8 84C244 85.3 259 88.7 274.2 89.2C289.3 89.7 304.7 87.3 320 86.5C335.3 85.7 350.7 86.3 365.8 88.8C381 91.3 396 95.7 411.2 95.2C426.3 94.7 441.7 89.3 457 85.5C472.3 81.7 487.7 79.3 503 80.7C518.3 82 533.7 87 548.8 88C564 89 579 86 594.2 85.5C609.3 85 624.7 87 640 84.8C655.3 82.7 670.7 76.3 685.8 77C701 77.7 716 85.3 731.2 90.3C746.3 95.3 761.7 97.7 777 95.8C792.3 94 807.7 88 823 85.3C838.3 82.7 853.7 83.3 868.8 82.7C884 82 899 80 914.2 78.3C929.3 76.7 944.7 75.3 952.3 74.7L960 74L960 141L952.3 141C944.7 141 929.3 141 914.2 141C899 141 884 141 868.8 141C853.7 141 838.3 141 823 141C807.7 141 792.3 141 777 141C761.7 141 746.3 141 731.2 141C716 141 701 141 685.8 141C670.7 141 655.3 141 640 141C624.7 141 609.3 141 594.2 141C579 141 564 141 548.8 141C533.7 141 518.3 141 503 141C487.7 141 472.3 141 457 141C441.7 141 426.3 141 411.2 141C396 141 381 141 365.8 141C350.7 141 335.3 141 320 141C304.7 141 289.3 141 274.2 141C259 141 244 141 228.8 141C213.7 141 198.3 141 183 141C167.7 141 152.3 141 137 141C121.7 141 106.3 141 91.2 141C76 141 61 141 45.8 141C30.7 141 15.3 141 7.7 141L0 141Z" fill="#2e134f"></path><path d="M0 106L7.7 106.5C15.3 107 30.7 108 45.8 106.8C61 105.7 76 102.3 91.2 100.2C106.3 98 121.7 97 137 96.7C152.3 96.3 167.7 96.7 183 97C198.3 97.3 213.7 97.7 228.8 97.5C244 97.3 259 96.7 274.2 96.2C289.3 95.7 304.7 95.3 320 96.8C335.3 98.3 350.7 101.7 365.8 102.8C381 104 396 103 411.2 102.5C426.3 102 441.7 102 457 103.3C472.3 104.7 487.7 107.3 503 105.7C518.3 104 533.7 98 548.8 95.3C564 92.7 579 93.3 594.2 96C609.3 98.7 624.7 103.3 640 105.8C655.3 108.3 670.7 108.7 685.8 107.5C701 106.3 716 103.7 731.2 102.5C746.3 101.3 761.7 101.7 777 100.3C792.3 99 807.7 96 823 96.8C838.3 97.7 853.7 102.3 868.8 102C884 101.7 899 96.3 914.2 97.3C929.3 98.3 944.7 105.7 952.3 109.3L960 113L960 141L952.3 141C944.7 141 929.3 141 914.2 141C899 141 884 141 868.8 141C853.7 141 838.3 141 823 141C807.7 141 792.3 141 777 141C761.7 141 746.3 141 731.2 141C716 141 701 141 685.8 141C670.7 141 655.3 141 640 141C624.7 141 609.3 141 594.2 141C579 141 564 141 548.8 141C533.7 141 518.3 141 503 141C487.7 141 472.3 141 457 141C441.7 141 426.3 141 411.2 141C396 141 381 141 365.8 141C350.7 141 335.3 141 320 141C304.7 141 289.3 141 274.2 141C259 141 244 141 228.8 141C213.7 141 198.3 141 183 141C167.7 141 152.3 141 137 141C121.7 141 106.3 141 91.2 141C76 141 61 141 45.8 141C30.7 141 15.3 141 7.7 141L0 141Z" fill="#29094f"></path><path d="M0 109L7.7 111.8C15.3 114.7 30.7 120.3 45.8 122.8C61 125.3 76 124.7 91.2 124.2C106.3 123.7 121.7 123.3 137 123.8C152.3 124.3 167.7 125.7 183 123.5C198.3 121.3 213.7 115.7 228.8 113.8C244 112 259 114 274.2 116.7C289.3 119.3 304.7 122.7 320 123.7C335.3 124.7 350.7 123.3 365.8 121C381 118.7 396 115.3 411.2 113.2C426.3 111 441.7 110 457 113C472.3 116 487.7 123 503 126.5C518.3 130 533.7 130 548.8 127.7C564 125.3 579 120.7 594.2 116.8C609.3 113 624.7 110 640 110C655.3 110 670.7 113 685.8 114.3C701 115.7 716 115.3 731.2 116.7C746.3 118 761.7 121 777 122.5C792.3 124 807.7 124 823 122C838.3 120 853.7 116 868.8 117.2C884 118.3 899 124.7 914.2 124.7C929.3 124.7 944.7 118.3 952.3 115.2L960 112L960 141L952.3 141C944.7 141 929.3 141 914.2 141C899 141 884 141 868.8 141C853.7 141 838.3 141 823 141C807.7 141 792.3 141 777 141C761.7 141 746.3 141 731.2 141C716 141 701 141 685.8 141C670.7 141 655.3 141 640 141C624.7 141 609.3 141 594.2 141C579 141 564 141 548.8 141C533.7 141 518.3 141 503 141C487.7 141 472.3 141 457 141C441.7 141 426.3 141 411.2 141C396 141 381 141 365.8 141C350.7 141 335.3 141 320 141C304.7 141 289.3 141 274.2 141C259 141 244 141 228.8 141C213.7 141 198.3 141 183 141C167.7 141 152.3 141 137 141C121.7 141 106.3 141 91.2 141C76 141 61 141 45.8 141C30.7 141 15.3 141 7.7 141L0 141Z" fill="#24004f"></path></svg>