<svg id="visual" viewBox="0 0 960 140" width="960" height="140" xmlns="http://www.w3.org/2000/svg" xmlns:xlink="http://www.w3.org/1999/xlink" version="1.1"><rect x="0" y="0" width="960" height="140" fill="#004c4c"></rect><path d="M0 57L8.5 57.2C17 57.3 34 57.7 50.8 52.7C67.7 47.7 84.3 37.3 101.2 33.2C118 29 135 31 151.8 31.8C168.7 32.7 185.3 32.3 202.2 33C219 33.7 236 35.3 252.8 37.3C269.7 39.3 286.3 41.7 303.2 40.8C320 40 337 36 353.8 33.3C370.7 30.7 387.3 29.3 404.2 32.7C421 36 438 44 454.8 44.3C471.7 44.7 488.3 37.3 505.2 38.7C522 40 539 50 555.8 50.2C572.7 50.3 589.3 40.7 606.2 39.3C623 38 640 45 656.8 45C673.7 45 690.3 38 707.2 35.3C724 32.7 741 34.3 757.8 36.2C774.7 38 791.3 40 808.2 39.8C825 39.7 842 37.3 858.8 35.5C875.7 33.7 892.3 32.3 909.2 35.3C926 38.3 943 45.7 951.5 49.3L960 53L960 141L951.5 141C943 141 926 141 909.2 141C892.3 141 875.7 141 858.8 141C842 141 825 141 808.2 141C791.3 141 774.7 141 757.8 141C741 141 724 141 707.2 141C690.3 141 673.7 141 656.8 141C640 141 623 141 606.2 141C589.3 141 572.7 141 555.8 141C539 141 522 141 505.2 141C488.3 141 471.7 141 454.8 141C438 141 421 141 404.2 141C387.3 141 370.7 141 353.8 141C337 141 320 141 303.2 141C286.3 141 269.7 141 252.8 141C236 141 219 141 202.2 141C185.3 141 168.7 141 151.8 141C135 141 118 141 101.2 141C84.3 141 67.7 141 50.8 141C34 141 17 141 8.5 141L0 141Z" fill="#4e3270"></path><path d="M0 64L8.5 65.2C17 66.3 34 68.7 50.8 66.5C67.7 64.3 84.3 57.7 101.2 57.7C118 57.7 135 64.3 151.8 66.3C168.7 68.3 185.3 65.7 202.2 61.7C219 57.7 236 52.3 252.8 49C269.7 45.7 286.3 44.3 303.2 44C320 43.7 337 44.3 353.8 46.2C370.7 48 387.3 51 404.2 53.7C421 56.3 438 58.7 454.8 62C471.7 65.3 488.3 69.7 505.2 71.8C522 74 539 74 555.8 73.2C572.7 72.3 589.3 70.7 606.2 68.8C623 67 640 65 656.8 65.7C673.7 66.3 690.3 69.7 707.2 68.5C724 67.3 741 61.7 757.8 57.5C774.7 53.3 791.3 50.7 808.2 51.5C825 52.3 842 56.7 858.8 58.3C875.7 60 892.3 59 909.2 56.7C926 54.3 943 50.7 951.5 48.8L960 47L960 141L951.5 141C943 141 926 141 909.2 141C892.3 141 875.7 141 858.8 141C842 141 825 141 808.2 141C791.3 141 774.7 141 757.8 141C741 141 724 141 707.2 141C690.3 141 673.7 141 656.8 141C640 141 623 141 606.2 141C589.3 141 572.7 141 555.8 141C539 141 522 141 505.2 141C488.3 141 471.7 141 454.8 141C438 141 421 141 404.2 141C387.3 141 370.7 141 353.8 141C337 141 320 141 303.2 141C286.3 141 269.7 141 252.8 141C236 141 219 141 202.2 141C185.3 141 168.7 141 151.8 141C135 141 118 141 101.2 141C84.3 141 67.7 141 50.8 141C34 141 17 141 8.5 141L0 141Z" fill="#3f2a5c"></path><path d="M0 68L8.5 68C17 68 34 68 50.8 68C67.7 68 84.3 68 101.2 69.5C118 71 135 74 151.8 74C168.7 74 185.3 71 202.2 68.3C219 65.7 236 63.3 252.8 67C269.7 70.7 286.3 80.3 303.2 81.7C320 83 337 76 353.8 72.2C370.7 68.3 387.3 67.7 404.2 68.8C421 70 438 73 454.8 73.2C471.7 73.3 488.3 70.7 505.2 69.8C522 69 539 70 555.8 71.8C572.7 73.7 589.3 76.3 606.2 76.5C623 76.7 640 74.3 656.8 73.8C673.7 73.3 690.3 74.7 707.2 76.5C724 78.3 741 80.7 757.8 82.3C774.7 84 791.3 85 808.2 82.2C825 79.3 842 72.7 858.8 69C875.7 65.3 892.3 64.7 909.2 64.8C926 65 943 66 951.5 66.5L960 67L960 141L951.5 141C943 141 926 141 909.2 141C892.3 141 875.7 141 858.8 141C842 141 825 141 808.2 141C791.3 141 774.7 141 757.8 141C741 141 724 141 707.2 141C690.3 141 673.7 141 656.8 141C640 141 623 141 606.2 141C589.3 141 572.7 141 555.8 141C539 141 522 141 505.2 141C488.3 141 471.7 141 454.8 141C438 141 421 141 404.2 141C387.3 141 370.7 141 353.8 141C337 141 320 141 303.2 141C286.3 141 269.7 141 252.8 141C236 141 219 141 202.2 141C185.3 141 168.7 141 151.8 141C135 141 118 141 101.2 141C84.3 141 67.7 141 50.8 141C34 141 17 141 8.5 141L0 141Z" fill="#312149"></path><path d="M0 96L8.5 94C17 92 34 88 50.8 87C67.7 86 84.3 88 101.2 87.5C118 87 135 84 151.8 86.2C168.7 88.3 185.3 95.7 202.2 95C219 94.3 236 85.7 252.8 83.7C269.7 81.7 286.3 86.3 303.2 89.3C320 92.3 337 93.7 353.8 94.5C370.7 95.3 387.3 95.7 404.2 96.2C421 96.7 438 97.3 454.8 94.3C471.7 91.3 488.3 84.7 505.2 84.3C522 84 539 90 555.8 93.8C572.7 97.7 589.3 99.3 606.2 97.7C623 96 640 91 656.8 87.8C673.7 84.7 690.3 83.3 707.2 84.8C724 86.3 741 90.7 757.8 93.2C774.7 95.7 791.3 96.3 808.2 97.3C825 98.3 842 99.7 858.8 97.2C875.7 94.7 892.3 88.3 909.2 84.8C926 81.3 943 80.7 951.5 80.3L960 80L960 141L951.5 141C943 141 926 141 909.2 141C892.3 141 875.7 141 858.8 141C842 141 825 141 808.2 141C791.3 141 774.7 141 757.8 141C741 141 724 141 707.2 141C690.3 141 673.7 141 656.8 141C640 141 623 141 606.2 141C589.3 141 572.7 141 555.8 141C539 141 522 141 505.2 141C488.3 141 471.7 141 454.8 141C438 141 421 141 404.2 141C387.3 141 370.7 141 353.8 141C337 141 320 141 303.2 141C286.3 141 269.7 141 252.8 141C236 141 219 141 202.2 141C185.3 141 168.7 141 151.8 141C135 141 118 141 101.2 141C84.3 141 67.7 141 50.8 141C34 141 17 141 8.5 141L0 141Z" fill="#231936"></path><path d="M0 105L8.5 103.5C17 102 34 99 50.8 98.3C67.7 97.7 84.3 99.3 101.2 99.2C118 99 135 97 151.8 99C168.7 101 185.3 107 202.2 108.3C219 109.7 236 106.3 252.8 105.7C269.7 105 286.3 107 303.2 109C320 111 337 113 353.8 110.5C370.7 108 387.3 101 404.2 99.7C421 98.3 438 102.7 454.8 105C471.7 107.3 488.3 107.7 505.2 105.5C522 103.3 539 98.7 555.8 97.3C572.7 96 589.3 98 606.2 101C623 104 640 108 656.8 109.3C673.7 110.7 690.3 109.3 707.2 107.2C724 105 741 102 757.8 103.2C774.7 104.3 791.3 109.7 808.2 111.7C825 113.7 842 112.3 858.8 109C875.7 105.7 892.3 100.3 909.2 100.8C926 101.3 943 107.7 951.5 110.8L960 114L960 141L951.5 141C943 141 926 141 909.2 141C892.3 141 875.7 141 858.8 141C842 141 825 141 808.2 141C791.3 141 774.7 141 757.8 141C741 141 724 141 707.2 141C690.3 141 673.7 141 656.8 141C640 141 623 141 606.2 141C589.3 141 572.7 141 555.8 141C539 141 522 141 505.2 141C488.3 141 471.7 141 454.8 141C438 141 421 141 404.2 141C387.3 141 370.7 141 353.8 141C337 141 320 141 303.2 141C286.3 141 269.7 141 252.8 141C236 141 219 141 202.2 141C185.3 141 168.7 141 151.8 141C135 141 118 141 101.2 141C84.3 141 67.7 141 50.8 141C34 141 17 141 8.5 141L0 141Z" fill="#181023"></path><path d="M0 122L8.5 120.5C17 119 34 116 50.8 115.5C67.7 115 84.3 117 101.2 117.5C118 118 135 117 151.8 118.8C168.7 120.7 185.3 125.3 202.2 125.5C219 125.7 236 121.3 252.8 121.2C269.7 121 286.3 125 303.2 124.2C320 123.3 337 117.7 353.8 117C370.7 116.3 387.3 120.7 404.2 121.5C421 122.3 438 119.7 454.8 120.3C471.7 121 488.3 125 505.2 126.8C522 128.7 539 128.3 555.8 128C572.7 127.7 589.3 127.3 606.2 127C623 126.7 640 126.3 656.8 123.8C673.7 121.3 690.3 116.7 707.2 115.2C724 113.7 741 115.3 757.8 118.5C774.7 121.7 791.3 126.3 808.2 128.3C825 130.3 842 129.7 858.8 129.5C875.7 129.3 892.3 129.7 909.2 128.2C926 126.7 943 123.3 951.5 121.7L960 120L960 141L951.5 141C943 141 926 141 909.2 141C892.3 141 875.7 141 858.8 141C842 141 825 141 808.2 141C791.3 141 774.7 141 757.8 141C741 141 724 141 707.2 141C690.3 141 673.7 141 656.8 141C640 141 623 141 606.2 141C589.3 141 572.7 141 555.8 141C539 141 522 141 505.2 141C488.3 141 471.7 141 454.8 141C438 141 421 141 404.2 141C387.3 141 370.7 141 353.8 141C337 141 320 141 303.2 141C286.3 141 269.7 141 252.8 141C236 141 219 141 202.2 141C185.3 141 168.7 141 151.8 141C135 141 118 141 101.2 141C84.3 141 67.7 141 50.8 141C34 141 17 141 8.5 141L0 141Z" fill="#080012"></path></svg>