<svg id="visual" viewBox="0 0 960 140" width="960" height="140" xmlns="http://www.w3.org/2000/svg" xmlns:xlink="http://www.w3.org/1999/xlink" version="1.1"><rect x="0" y="0" width="960" height="140" fill="#080012"></rect><path d="M0 22L7.7 25.3C15.3 28.7 30.7 35.3 45.8 37.8C61 40.3 76 38.7 91.2 38.3C106.3 38 121.7 39 137 41.3C152.3 43.7 167.7 47.3 183 46.8C198.3 46.3 213.7 41.7 228.8 38C244 34.3 259 31.7 274.2 28.5C289.3 25.3 304.7 21.7 320 24.5C335.3 27.3 350.7 36.7 365.8 42.3C381 48 396 50 411.2 48.7C426.3 47.3 441.7 42.7 457 38.5C472.3 34.3 487.7 30.7 503 27C518.3 23.3 533.7 19.7 548.8 22.5C564 25.3 579 34.7 594.2 35.3C609.3 36 624.7 28 640 27.8C655.3 27.7 670.7 35.3 685.8 38.7C701 42 716 41 731.2 36.8C746.3 32.7 761.7 25.3 777 25C792.3 24.7 807.7 31.3 823 35.8C838.3 40.3 853.7 42.7 868.8 42.7C884 42.7 899 40.3 914.2 36C929.3 31.7 944.7 25.3 952.3 22.2L960 19L960 141L952.3 141C944.7 141 929.3 141 914.2 141C899 141 884 141 868.8 141C853.7 141 838.3 141 823 141C807.7 141 792.3 141 777 141C761.7 141 746.3 141 731.2 141C716 141 701 141 685.8 141C670.7 141 655.3 141 640 141C624.7 141 609.3 141 594.2 141C579 141 564 141 548.8 141C533.7 141 518.3 141 503 141C487.7 141 472.3 141 457 141C441.7 141 426.3 141 411.2 141C396 141 381 141 365.8 141C350.7 141 335.3 141 320 141C304.7 141 289.3 141 274.2 141C259 141 244 141 228.8 141C213.7 141 198.3 141 183 141C167.7 141 152.3 141 137 141C121.7 141 106.3 141 91.2 141C76 141 61 141 45.8 141C30.7 141 15.3 141 7.7 141L0 141Z" fill="#122d0a"></path><path d="M0 67L7.7 63.2C15.3 59.3 30.7 51.7 45.8 48.5C61 45.3 76 46.7 91.2 46.2C106.3 45.7 121.7 43.3 137 40.8C152.3 38.3 167.7 35.7 183 34.5C198.3 33.3 213.7 33.7 228.8 39.8C244 46 259 58 274.2 60C289.3 62 304.7 54 320 48.7C335.3 43.3 350.7 40.7 365.8 44.3C381 48 396 58 411.2 61.2C426.3 64.3 441.7 60.7 457 57C472.3 53.3 487.7 49.7 503 47.7C518.3 45.7 533.7 45.3 548.8 46.7C564 48 579 51 594.2 54.3C609.3 57.7 624.7 61.3 640 60.2C655.3 59 670.7 53 685.8 52.8C701 52.7 716 58.3 731.2 58.7C746.3 59 761.7 54 777 53.8C792.3 53.7 807.7 58.3 823 58C838.3 57.7 853.7 52.3 868.8 52.8C884 53.3 899 59.7 914.2 59.5C929.3 59.3 944.7 52.7 952.3 49.3L960 46L960 141L952.3 141C944.7 141 929.3 141 914.2 141C899 141 884 141 868.8 141C853.7 141 838.3 141 823 141C807.7 141 792.3 141 777 141C761.7 141 746.3 141 731.2 141C716 141 701 141 685.8 141C670.7 141 655.3 141 640 141C624.7 141 609.3 141 594.2 141C579 141 564 141 548.8 141C533.7 141 518.3 141 503 141C487.7 141 472.3 141 457 141C441.7 141 426.3 141 411.2 141C396 141 381 141 365.8 141C350.7 141 335.3 141 320 141C304.7 141 289.3 141 274.2 141C259 141 244 141 228.8 141C213.7 141 198.3 141 183 141C167.7 141 152.3 141 137 141C121.7 141 106.3 141 91.2 141C76 141 61 141 45.8 141C30.7 141 15.3 141 7.7 141L0 141Z" fill="#183b0f"></path><path d="M0 84L7.7 82C15.3 80 30.7 76 45.8 75.2C61 74.3 76 76.7 91.2 77C106.3 77.3 121.7 75.7 137 74.3C152.3 73 167.7 72 183 70C198.3 68 213.7 65 228.8 64.5C244 64 259 66 274.2 69.7C289.3 73.3 304.7 78.7 320 78.7C335.3 78.7 350.7 73.3 365.8 69.2C381 65 396 62 411.2 62.3C426.3 62.7 441.7 66.3 457 69.5C472.3 72.7 487.7 75.3 503 77C518.3 78.7 533.7 79.3 548.8 79C564 78.7 579 77.3 594.2 78C609.3 78.7 624.7 81.3 640 78.2C655.3 75 670.7 66 685.8 63.2C701 60.3 716 63.7 731.2 68.2C746.3 72.7 761.7 78.3 777 75.7C792.3 73 807.7 62 823 56.7C838.3 51.3 853.7 51.7 868.8 55.2C884 58.7 899 65.3 914.2 66.7C929.3 68 944.7 64 952.3 62L960 60L960 141L952.3 141C944.7 141 929.3 141 914.2 141C899 141 884 141 868.8 141C853.7 141 838.3 141 823 141C807.7 141 792.3 141 777 141C761.7 141 746.3 141 731.2 141C716 141 701 141 685.8 141C670.7 141 655.3 141 640 141C624.7 141 609.3 141 594.2 141C579 141 564 141 548.8 141C533.7 141 518.3 141 503 141C487.7 141 472.3 141 457 141C441.7 141 426.3 141 411.2 141C396 141 381 141 365.8 141C350.7 141 335.3 141 320 141C304.7 141 289.3 141 274.2 141C259 141 244 141 228.8 141C213.7 141 198.3 141 183 141C167.7 141 152.3 141 137 141C121.7 141 106.3 141 91.2 141C76 141 61 141 45.8 141C30.7 141 15.3 141 7.7 141L0 141Z" fill="#1e4a13"></path><path d="M0 80L7.7 80C15.3 80 30.7 80 45.8 83.2C61 86.3 76 92.7 91.2 94.3C106.3 96 121.7 93 137 89.5C152.3 86 167.7 82 183 82C198.3 82 213.7 86 228.8 85.2C244 84.3 259 78.7 274.2 78.8C289.3 79 304.7 85 320 84.5C335.3 84 350.7 77 365.8 75.2C381 73.3 396 76.7 411.2 78.2C426.3 79.7 441.7 79.3 457 78C472.3 76.7 487.7 74.3 503 76.2C518.3 78 533.7 84 548.8 85C564 86 579 82 594.2 83.7C609.3 85.3 624.7 92.7 640 96C655.3 99.3 670.7 98.7 685.8 94C701 89.3 716 80.7 731.2 79C746.3 77.3 761.7 82.7 777 83.2C792.3 83.7 807.7 79.3 823 80.5C838.3 81.7 853.7 88.3 868.8 91.5C884 94.7 899 94.3 914.2 92.3C929.3 90.3 944.7 86.7 952.3 84.8L960 83L960 141L952.3 141C944.7 141 929.3 141 914.2 141C899 141 884 141 868.8 141C853.7 141 838.3 141 823 141C807.7 141 792.3 141 777 141C761.7 141 746.3 141 731.2 141C716 141 701 141 685.8 141C670.7 141 655.3 141 640 141C624.7 141 609.3 141 594.2 141C579 141 564 141 548.8 141C533.7 141 518.3 141 503 141C487.7 141 472.3 141 457 141C441.7 141 426.3 141 411.2 141C396 141 381 141 365.8 141C350.7 141 335.3 141 320 141C304.7 141 289.3 141 274.2 141C259 141 244 141 228.8 141C213.7 141 198.3 141 183 141C167.7 141 152.3 141 137 141C121.7 141 106.3 141 91.2 141C76 141 61 141 45.8 141C30.7 141 15.3 141 7.7 141L0 141Z" fill="#245917"></path><path d="M0 90L7.7 89.8C15.3 89.7 30.7 89.3 45.8 90.7C61 92 76 95 91.2 97.8C106.3 100.7 121.7 103.3 137 102.7C152.3 102 167.7 98 183 97.3C198.3 96.7 213.7 99.3 228.8 98.3C244 97.3 259 92.7 274.2 91.2C289.3 89.7 304.7 91.3 320 94.5C335.3 97.7 350.7 102.3 365.8 104.2C381 106 396 105 411.2 101.8C426.3 98.7 441.7 93.3 457 95C472.3 96.7 487.7 105.3 503 109.3C518.3 113.3 533.7 112.7 548.8 108.8C564 105 579 98 594.2 97C609.3 96 624.7 101 640 104.2C655.3 107.3 670.7 108.7 685.8 107.7C701 106.7 716 103.3 731.2 100.5C746.3 97.7 761.7 95.3 777 93.5C792.3 91.7 807.7 90.3 823 94.2C838.3 98 853.7 107 868.8 107.3C884 107.7 899 99.3 914.2 98C929.3 96.7 944.7 102.3 952.3 105.2L960 108L960 141L952.3 141C944.7 141 929.3 141 914.2 141C899 141 884 141 868.8 141C853.7 141 838.3 141 823 141C807.7 141 792.3 141 777 141C761.7 141 746.3 141 731.2 141C716 141 701 141 685.8 141C670.7 141 655.3 141 640 141C624.7 141 609.3 141 594.2 141C579 141 564 141 548.8 141C533.7 141 518.3 141 503 141C487.7 141 472.3 141 457 141C441.7 141 426.3 141 411.2 141C396 141 381 141 365.8 141C350.7 141 335.3 141 320 141C304.7 141 289.3 141 274.2 141C259 141 244 141 228.8 141C213.7 141 198.3 141 183 141C167.7 141 152.3 141 137 141C121.7 141 106.3 141 91.2 141C76 141 61 141 45.8 141C30.7 141 15.3 141 7.7 141L0 141Z" fill="#2c681b"></path><path d="M0 118L7.7 117.7C15.3 117.3 30.7 116.7 45.8 115C61 113.3 76 110.7 91.2 110.2C106.3 109.7 121.7 111.3 137 114C152.3 116.7 167.7 120.3 183 120.7C198.3 121 213.7 118 228.8 116.8C244 115.7 259 116.3 274.2 118.2C289.3 120 304.7 123 320 124C335.3 125 350.7 124 365.8 121.3C381 118.7 396 114.3 411.2 114.7C426.3 115 441.7 120 457 120.8C472.3 121.7 487.7 118.3 503 117.8C518.3 117.3 533.7 119.7 548.8 118.5C564 117.3 579 112.7 594.2 112.3C609.3 112 624.7 116 640 119C655.3 122 670.7 124 685.8 125.2C701 126.3 716 126.7 731.2 124.8C746.3 123 761.7 119 777 117.3C792.3 115.7 807.7 116.3 823 118.8C838.3 121.3 853.7 125.7 868.8 128C884 130.3 899 130.7 914.2 128.2C929.3 125.7 944.7 120.3 952.3 117.7L960 115L960 141L952.3 141C944.7 141 929.3 141 914.2 141C899 141 884 141 868.8 141C853.7 141 838.3 141 823 141C807.7 141 792.3 141 777 141C761.7 141 746.3 141 731.2 141C716 141 701 141 685.8 141C670.7 141 655.3 141 640 141C624.7 141 609.3 141 594.2 141C579 141 564 141 548.8 141C533.7 141 518.3 141 503 141C487.7 141 472.3 141 457 141C441.7 141 426.3 141 411.2 141C396 141 381 141 365.8 141C350.7 141 335.3 141 320 141C304.7 141 289.3 141 274.2 141C259 141 244 141 228.8 141C213.7 141 198.3 141 183 141C167.7 141 152.3 141 137 141C121.7 141 106.3 141 91.2 141C76 141 61 141 45.8 141C30.7 141 15.3 141 7.7 141L0 141Z" fill="#33781f"></path></svg>