<svg id="visual" viewBox="0 0 960 140" width="960" height="140" xmlns="http://www.w3.org/2000/svg" xmlns:xlink="http://www.w3.org/1999/xlink" version="1.1"><rect x="0" y="0" width="960" height="140" fill="#1f0046"></rect><path d="M0 58L10 62.5C20 67 40 76 60 78C80 80 100 75 120 76.2C140 77.3 160 84.7 180 87.3C200 90 220 88 240 82.2C260 76.3 280 66.7 300 61.3C320 56 340 55 360 62C380 69 400 84 420 89C440 94 460 89 480 84C500 79 520 74 540 69.7C560 65.3 580 61.7 600 57.3C620 53 640 48 660 52C680 56 700 69 720 73C740 77 760 72 780 67.5C800 63 820 59 840 62.5C860 66 880 77 900 74.8C920 72.7 940 57.3 950 49.7L960 42L960 141L950 141C940 141 920 141 900 141C880 141 860 141 840 141C820 141 800 141 780 141C760 141 740 141 720 141C700 141 680 141 660 141C640 141 620 141 600 141C580 141 560 141 540 141C520 141 500 141 480 141C460 141 440 141 420 141C400 141 380 141 360 141C340 141 320 141 300 141C280 141 260 141 240 141C220 141 200 141 180 141C160 141 140 141 120 141C100 141 80 141 60 141C40 141 20 141 10 141L0 141Z" fill="#203b18"></path><path d="M0 100L10 100C20 100 40 100 60 101C80 102 100 104 120 99.7C140 95.3 160 84.7 180 78C200 71.3 220 68.7 240 70.5C260 72.3 280 78.7 300 85.2C320 91.7 340 98.3 360 99C380 99.7 400 94.3 420 91.5C440 88.7 460 88.3 480 83.8C500 79.3 520 70.7 540 69.2C560 67.7 580 73.3 600 75C620 76.7 640 74.3 660 76.8C680 79.3 700 86.7 720 86.3C740 86 760 78 780 72C800 66 820 62 840 60.3C860 58.7 880 59.3 900 59.3C920 59.3 940 58.7 950 58.3L960 58L960 141L950 141C940 141 920 141 900 141C880 141 860 141 840 141C820 141 800 141 780 141C760 141 740 141 720 141C700 141 680 141 660 141C640 141 620 141 600 141C580 141 560 141 540 141C520 141 500 141 480 141C460 141 440 141 420 141C400 141 380 141 360 141C340 141 320 141 300 141C280 141 260 141 240 141C220 141 200 141 180 141C160 141 140 141 120 141C100 141 80 141 60 141C40 141 20 141 10 141L0 141Z" fill="#254a1a"></path><path d="M0 80L10 80C20 80 40 80 60 84.5C80 89 100 98 120 102.8C140 107.7 160 108.3 180 103.5C200 98.7 220 88.3 240 87.8C260 87.3 280 96.7 300 99.8C320 103 340 100 360 97.8C380 95.7 400 94.3 420 97C440 99.7 460 106.3 480 107.8C500 109.3 520 105.7 540 103.5C560 101.3 580 100.7 600 97.5C620 94.3 640 88.7 660 91.7C680 94.7 700 106.3 720 109.2C740 112 760 106 780 102.2C800 98.3 820 96.7 840 94.7C860 92.7 880 90.3 900 92.7C920 95 940 102 950 105.5L960 109L960 141L950 141C940 141 920 141 900 141C880 141 860 141 840 141C820 141 800 141 780 141C760 141 740 141 720 141C700 141 680 141 660 141C640 141 620 141 600 141C580 141 560 141 540 141C520 141 500 141 480 141C460 141 440 141 420 141C400 141 380 141 360 141C340 141 320 141 300 141C280 141 260 141 240 141C220 141 200 141 180 141C160 141 140 141 120 141C100 141 80 141 60 141C40 141 20 141 10 141L0 141Z" fill="#2a591c"></path><path d="M0 97L10 101.5C20 106 40 115 60 116.5C80 118 100 112 120 108.8C140 105.7 160 105.3 180 106.5C200 107.7 220 110.3 240 109.5C260 108.7 280 104.3 300 103.8C320 103.3 340 106.7 360 107.7C380 108.7 400 107.3 420 106.5C440 105.7 460 105.3 480 107.5C500 109.7 520 114.3 540 117C560 119.7 580 120.3 600 118.7C620 117 640 113 660 108.5C680 104 700 99 720 100.7C740 102.3 760 110.7 780 112.2C800 113.7 820 108.3 840 109.2C860 110 880 117 900 115.3C920 113.7 940 103.3 950 98.2L960 93L960 141L950 141C940 141 920 141 900 141C880 141 860 141 840 141C820 141 800 141 780 141C760 141 740 141 720 141C700 141 680 141 660 141C640 141 620 141 600 141C580 141 560 141 540 141C520 141 500 141 480 141C460 141 440 141 420 141C400 141 380 141 360 141C340 141 320 141 300 141C280 141 260 141 240 141C220 141 200 141 180 141C160 141 140 141 120 141C100 141 80 141 60 141C40 141 20 141 10 141L0 141Z" fill="#2f681e"></path><path d="M0 132L10 131.2C20 130.3 40 128.7 60 127C80 125.3 100 123.7 120 123C140 122.3 160 122.7 180 120.7C200 118.7 220 114.3 240 114.7C260 115 280 120 300 122C320 124 340 123 360 121.5C380 120 400 118 420 118.3C440 118.7 460 121.3 480 123.8C500 126.3 520 128.7 540 129.7C560 130.7 580 130.3 600 127.2C620 124 640 118 660 115.2C680 112.3 700 112.7 720 116.2C740 119.7 760 126.3 780 126.3C800 126.3 820 119.7 840 116C860 112.3 880 111.7 900 113C920 114.3 940 117.7 950 119.3L960 121L960 141L950 141C940 141 920 141 900 141C880 141 860 141 840 141C820 141 800 141 780 141C760 141 740 141 720 141C700 141 680 141 660 141C640 141 620 141 600 141C580 141 560 141 540 141C520 141 500 141 480 141C460 141 440 141 420 141C400 141 380 141 360 141C340 141 320 141 300 141C280 141 260 141 240 141C220 141 200 141 180 141C160 141 140 141 120 141C100 141 80 141 60 141C40 141 20 141 10 141L0 141Z" fill="#33781f"></path></svg>